<?xml version="1.0" standalone="no"?>
<!DOCTYPE svg PUBLIC "-//W3C//DTD SVG 20010904//EN"
 "http://www.w3.org/TR/2001/REC-SVG-20010904/DTD/svg10.dtd">
<svg version="1.0" xmlns="http://www.w3.org/2000/svg"
 width="487.000000pt" height="365.000000pt" viewBox="0 0 487.000000 365.000000"
 preserveAspectRatio="xMidYMid meet">

<g transform="translate(0.000000,365.000000) scale(0.100000,-0.100000)"
fill="#000000" stroke="none">
<path d="M2376 2971 c-59 -60 -68 -73 -62 -95 5 -20 13 -26 34 -26 15 0 33 5
40 12 8 8 14 5 21 -15 8 -21 17 -27 41 -27 18 0 32 6 35 15 16 52 14 49 33 31
37 -33 89 -7 73 36 -9 25 -119 138 -134 138 -7 0 -43 -31 -81 -69z"/>
<path d="M2412 2708 c-8 -8 -12 -47 -12 -110 l0 -98 -290 -304 c-309 -324
-318 -337 -265 -372 14 -9 32 -13 44 -9 11 3 81 70 156 148 l135 142 0 -417
c0 -405 1 -419 20 -438 26 -26 55 -25 74 2 14 20 16 84 16 498 l0 476 55 54
55 54 0 -535 c0 -520 1 -536 20 -554 24 -22 68 -13 79 17 4 12 7 257 7 545 -1
288 1 522 4 520 3 -1 26 -25 52 -52 l47 -51 2 -444 c1 -245 4 -465 8 -490 5
-37 11 -46 33 -54 22 -8 32 -6 48 9 19 18 20 29 20 439 l0 421 143 -142 c78
-79 145 -145 149 -149 12 -11 48 7 64 32 15 22 15 26 -2 52 -10 15 -85 97
-168 182 -173 178 -319 330 -363 379 -29 32 -31 39 -35 131 -2 62 -9 104 -17
114 -16 19 -62 21 -79 4z"/>
<path d="M2167 2684 c-4 -4 -7 -18 -7 -31 0 -19 -5 -23 -30 -23 -23 0 -30 -4
-30 -20 0 -15 7 -20 29 -20 25 0 30 -4 33 -27 4 -37 32 -37 36 -1 3 21 9 27
30 30 16 2 28 10 30 21 3 13 -3 17 -27 17 -25 0 -30 4 -33 27 -3 26 -18 39
-31 27z"/>
<path d="M2707 2684 c-4 -4 -7 -18 -7 -31 0 -19 -5 -23 -31 -23 -24 0 -30 -4
-27 -17 2 -11 14 -19 30 -21 21 -3 27 -9 30 -30 2 -16 9 -27 18 -27 9 0 16 11
18 27 3 21 9 27 30 30 16 2 28 10 30 21 3 13 -3 17 -27 17 -25 0 -30 4 -33 27
-3 26 -18 39 -31 27z"/>
<path d="M2052 1121 c-9 -6 -12 -52 -10 -177 l3 -169 25 0 25 0 3 167 c2 153
1 168 -16 177 -10 5 -24 6 -30 2z"/>
<path d="M2146 1094 c-9 -34 -6 -257 3 -293 6 -19 14 -26 32 -26 l24 0 0 170
0 170 -26 3 c-22 3 -28 -2 -33 -24z"/>
<path d="M1553 1099 c-22 -8 -23 -12 -23 -156 0 -81 4 -154 9 -161 4 -8 19
-12 32 -10 22 3 24 8 27 66 l3 62 57 0 c60 0 82 11 82 41 0 22 -20 29 -86 29
l-54 0 0 35 0 35 79 0 c54 0 82 4 90 14 13 15 5 46 -13 47 -71 6 -186 5 -203
-2z"/>
<path d="M2833 1103 c-19 -7 -18 -213 1 -257 29 -70 127 -105 199 -71 59 28
75 64 80 184 5 120 2 138 -25 146 -38 13 -48 -11 -48 -117 0 -55 -5 -108 -11
-119 -25 -48 -105 -44 -128 7 -6 14 -11 69 -11 123 0 81 -3 100 -16 105 -18 7
-23 7 -41 -1z"/>
<path d="M1840 1007 c-13 -7 -35 -28 -48 -47 -54 -79 5 -190 101 -190 41 0 87
21 87 40 0 5 -7 16 -16 24 -11 12 -20 13 -34 6 -29 -15 -55 -12 -75 10 -18 20
-17 20 63 20 l82 0 0 38 c0 82 -87 136 -160 99z m85 -67 c18 -20 17 -20 -33
-20 -53 0 -66 11 -34 29 26 16 47 13 67 -9z"/>
<path d="M2313 1005 c-66 -29 -94 -125 -52 -179 24 -31 69 -56 99 -56 36 0 85
28 103 59 36 62 8 149 -58 177 -42 17 -51 17 -92 -1z m87 -75 c24 -24 25 -38
4 -68 -22 -32 -73 -27 -93 9 -13 24 -13 29 2 53 21 32 59 34 87 6z"/>
<path d="M2500 1010 c-13 -8 -10 -23 19 -110 19 -55 39 -108 46 -117 15 -20
45 -11 46 14 0 10 8 36 18 57 l17 39 23 -61 c13 -38 28 -62 37 -62 16 0 40 49
75 159 20 62 21 73 9 82 -27 17 -45 5 -60 -41 -9 -25 -18 -52 -21 -60 -3 -9
-14 10 -26 45 -26 80 -51 82 -73 8 -9 -29 -18 -55 -22 -58 -3 -3 -13 18 -23
47 -21 65 -35 77 -65 58z"/>
<path d="M3167 1013 c-4 -3 -7 -82 -7 -173 0 -175 6 -199 44 -184 12 5 16 20
16 71 0 58 2 64 18 58 56 -24 115 -6 145 44 54 91 -36 215 -131 181 -25 -9
-37 -9 -45 -1 -12 12 -30 14 -40 4z m147 -79 c20 -19 21 -68 2 -83 -24 -20
-69 -9 -85 20 -13 24 -13 29 2 53 20 30 57 35 81 10z"/>
</g>
</svg>
